#!OML:ASF I:\Actors\actors\Patient Classification 2\Patient 1\Session 1\actor1.ASF
:FULLY-SPECIFIED
:DEGREES
92
root -0.0731816 17.6134 6.30761 -4.93686 -16.4951 1.22133
lowerback 3.9339 -6.4871 2.9556
upperback -2.83824 -8.29819 4.42836
thorax -4.90037 -4.14354 3.62444
lowerneck -19.2449 7.51798 5.64303
upperneck 25.817 12.6294 -12.3019
head 13.0966 4.5441 -3.49358
rclavicle 1.02573e-013 -6.36111e-015
rhumerus 33.9412 -6.37174 -57.1889
rradius 115.081
rwrist -21.4212
rhand -25.4338 -22.6851
rfingers 7.12502
rthumb 1.09258 -52.6621
lclavicle 1.02573e-013 -6.36111e-015
lhumerus 67.1545 -28.5943 48.7704
lradius 89.3208
lwrist 13.1002
lhand -23.524 -45.6628
lfingers 7.12502
lthumb 2.9371 -15.7033
rfemur 26.8583 8.68194 10.3457
rtibia -30.3198
rfoot 2.91827 -12.2173
rtoes -8.58682
lfemur 30.9909 11.152 -15.9726
ltibia -23.0919
lfoot -2.54783 14.5475
ltoes -16.3523
93
root -0.11513 17.6501 6.34686 -4.86303 -16.364 1.09171
lowerback 3.67075 -6.24139 2.66207
upperback -3.16928 -7.99647 4.2447
thorax -5.09375 -3.9862 3.56422
lowerneck -19.0698 7.23974 5.54916
upperneck 26.1503 12.1899 -11.9443
head 13.1057 4.38246 -3.43496
rclavicle -2.60408e-014 -4.13472e-014
rhumerus 37.5197 -7.38161 -54.9911
rradius 113.625
rwrist -21.199
rhand -26.0645 -23.0424
rfingers 7.12502
rthumb 0.483424 -53.0216
lclavicle -2.60408e-014 -4.13472e-014
lhumerus 67.4925 -26.486 49.2933
lradius 89.5946
lwrist 13.5317
lhand -23.9095 -47.0145
lfingers 7.12502
lthumb 2.5648 -17.0501
rfemur 26.4411 9.00491 10.6928
rtibia -29.0745
rfoot 1.80751 -12.1923
rtoes -7.53017
lfemur 30.2664 10.1131 -16.0411
ltibia -21.5052
lfoot -3.78223 15.2002
ltoes -15.5752
94
root -0.155319 17.6887 6.38275 -4.8153 -16.1969 0.921151
lowerback 3.54838 -6.01646 2.44643
upperback -3.39831 -7.713 4.09178
thorax -5.26639 -3.83927 3.50525
lowerneck -19.5364 6.92145 4.99425
upperneck 26.7009 11.7532 -11.2558
head 13.2841 4.18341 -3.15729
rclavicle -6.22196e-014 0
rhumerus 41.1748 -8.51783 -53.1523
rradius 112.061
rwrist -20.6131
rhand -26.5283 -23.317
rfingers 7.12502
rthumb 0.0355302 -53.2968
lclavicle -6.22196e-014 0
lhumerus 67.9341 -24.3902 49.8543
lradius 89.7846
lwrist 13.766
lhand -24.4071 -48.1503
lfingers 7.12502
lthumb 2.08418 -18.1807
rfemur 26.0785 9.34194 11.0973
rtibia -27.8677
rfoot 0.73954 -12.2105
rtoes -6.46529
lfemur 29.5539 8.93642 -16.1248
ltibia -19.8991
lfoot -5.03337 16.0024
ltoes -15.0736
95
root -0.195413 17.7247 6.41479 -4.75567 -16.0118 0.78032
lowerback 3.51946 -5.76389 2.21302
upperback -3.66426 -7.39062 3.88769
thorax -5.53745 -3.67155 3.41484
lowerneck -19.7708 6.75937 4.79918
upperneck 27.3879 11.4678 -10.6349
head 13.5234 4.08589 -2.94536
rclavicle 5.12864e-014 3.18055e-015
rhumerus 44.1698 -9.80648 -51.3276
rradius 110.502
rwrist -20.2598
rhand -26.7898 -23.1052
rfingers 7.12502
rthumb -0.2171 -53.0848
lclavicle 5.12864e-014 3.18055e-015
lhumerus 68.2633 -22.5728 50.5245
lradius 89.8931
lwrist 13.9854
lhand -24.8302 -49.2275
lfingers 7.12502
lthumb 1.67551 -19.2544
rfemur 25.7255 9.68723 11.4835
rtibia -26.7429
rfoot -0.252414 -12.2694
rtoes -5.68686
lfemur 28.8271 7.76292 -16.2562
ltibia -18.3423
lfoot -6.16362 16.8579
ltoes -15.1552
96
root -0.236338 17.7538 6.44343 -4.61826 -15.8778 0.701149
lowerback 3.48625 -5.47126 1.96108
upperback -3.98329 -7.01838 3.63128
thorax -5.86874 -3.47839 3.27925
lowerneck -20.3287 6.19831 4.09018
upperneck 28.1901 10.641 -9.62163
head 13.7722 3.73705 -2.5876
rclavicle -2.22639e-014 7.95139e-015
rhumerus 46.2077 -11.2264 -49.1155
rradius 108.939
rwrist -20.3881
rhand -27.0535 -22.1991
rfingers 7.12502
rthumb -0.47176 -52.1783
lclavicle -2.22639e-014 7.95139e-015
lhumerus 68.5023 -20.9056 51.2058
lradius 90.0889
lwrist 14.6306
lhand -25.3165 -50.1491
lfingers 7.12502
lthumb 1.20592 -20.1728
rfemur 25.2918 9.98744 11.7856
rtibia -25.7091
rfoot -1.08997 -12.2708
rtoes -5.56611
lfemur 28.0641 6.75522 -16.4054
ltibia -16.908
lfoot -7.22107 17.6097
ltoes -14.8395
